<?xml version="1.0" encoding="utf-8"?>
<!-- Generator: Adobe Illustrator 28.0.0, SVG Export Plug-In . SVG Version: 6.00 Build 0)  -->
<svg version="1.1" id="Layer_1" xmlns="http://www.w3.org/2000/svg" xmlns:xlink="http://www.w3.org/1999/xlink" x="0px" y="0px"
	 viewBox="0 0 841.89 183.28" style="enable-background:new 0 0 841.89 183.28;" xml:space="preserve">
<g>
	<g>
		<path d="M94.76,87.09v-0.71h6.02c1.39,0,2.71-0.27,3.97-0.82c1.26-0.55,2.29-1.46,3.08-2.74c0.79-1.28,1.19-3,1.19-5.17
			s-0.4-3.97-1.19-5.39c-0.79-1.42-1.82-2.49-3.08-3.19c-1.26-0.7-2.58-1.05-3.97-1.05H84.91v-1.07h15.88c4.14,0,7.46,0.8,9.95,2.4
			s3.74,4.17,3.74,7.73c0,3.54-1.18,6.1-3.53,7.67c-2.35,1.57-5.74,2.35-10.16,2.35H94.76z M84.91,108.01v-1.07h16.43
			c1.57,0,3.02-0.42,4.35-1.25c1.33-0.83,2.4-2.03,3.2-3.59c0.8-1.56,1.2-3.43,1.2-5.6s-0.4-3.92-1.2-5.26
			c-0.8-1.33-1.87-2.3-3.2-2.9c-1.33-0.6-2.78-0.9-4.35-0.9h-6.57v-0.68h7.15c2.57,0,4.94,0.32,7.09,0.96
			c2.15,0.64,3.88,1.67,5.17,3.09c1.3,1.42,1.94,3.32,1.94,5.69c0,4.11-1.26,7.05-3.79,8.83s-6,2.67-10.42,2.67H84.91z M89.83,107.6
			V67.36h5.23v40.24H89.83z"/>
		<path d="M131.77,108.01v-1.07h4.93V68.01h-4.93v-1.07h29.21v11.22h-1.07c0-1.95-0.28-3.7-0.83-5.23
			c-0.56-1.53-1.47-2.74-2.74-3.61c-1.27-0.88-2.97-1.31-5.11-1.31h-9.31v38.93h8.73c2.5,0,4.46-0.46,5.89-1.37
			c1.42-0.91,2.43-2.21,3.02-3.89c0.59-1.68,0.89-3.68,0.89-6h1.07v12.32H131.77z M150.61,92.76c0-1.22-0.23-2.24-0.7-3.04
			c-0.47-0.8-1.11-1.41-1.93-1.81c-0.82-0.4-1.75-0.6-2.79-0.6h-4.57v-1.07h4.57c1.04,0,1.97-0.18,2.79-0.55
			c0.82-0.36,1.46-0.93,1.93-1.7s0.7-1.76,0.7-2.98h1.07v11.74H150.61z"/>
		<path d="M197.07,66.15l14.13,40.79h4.27v1.07h-15.88v-1.07h5.61l-10.76-33.32l-11.61,33.32h5.8v1.07h-12.05v-1.07h5.01
			l14.35-40.79H197.07z M186.72,95.17V94.1h17.74v1.07H186.72z"/>
		<path d="M266,66.95v1.07h-5.17v27.4c0,4.51-1.02,7.87-3.05,10.07c-2.04,2.21-5.22,3.31-9.54,3.31c-4.73,0-8.19-1.05-10.39-3.15
			c-2.2-2.1-3.3-5.51-3.3-10.24v-27.4h-4.9v-1.07h15.6v1.07h-5.48v26.86c0,1.81,0.13,3.48,0.4,5.02c0.26,1.54,0.74,2.88,1.42,4.02
			c0.68,1.14,1.65,2.03,2.9,2.67c1.25,0.64,2.86,0.96,4.83,0.96c2.26,0,4.17-0.41,5.72-1.25c1.55-0.83,2.73-2.14,3.53-3.92
			c0.8-1.78,1.2-4.1,1.2-6.97v-27.4h-5.04v-1.07H266z"/>
		<path d="M288.64,108.01v-1.07h6.02V68.01h-5.48c-1.61,0-2.91,0.26-3.9,0.78c-1,0.52-1.76,1.27-2.29,2.25
			c-0.53,0.98-0.89,2.16-1.1,3.54c-0.2,1.39-0.3,2.95-0.3,4.68h-1.1V66.95h33.51v12.32h-1.07c0-1.73-0.1-3.29-0.3-4.68
			c-0.2-1.39-0.57-2.57-1.11-3.54c-0.54-0.98-1.31-1.72-2.3-2.25c-0.99-0.52-2.29-0.78-3.9-0.78h-5.48v38.93h6.02v1.07H288.64z"/>
		<path d="M339.56,108.01v-1.07h4.93V88.27L332,68.01h-4.19v-1.07h15.88v1.07h-5.67l11.03,18.1l10.84-18.1h-5.75v-1.07h11.17v1.07
			h-4.16l-11.47,19.03v19.9h5.5v1.07H339.56z"/>
		<path d="M404.08,108.01v-1.07h6.02V68.01h-6.02v-1.07h17.79v1.07h-6.57v38.93h6.57v1.07H404.08z"/>
		<path d="M451.5,108.8c-2.35,0-4.39-0.37-6.1-1.09c-1.72-0.73-3.15-1.73-4.3-3.01l-2.55,3.86h-0.93V97.31h1.07
			c0.29,1.5,0.76,2.88,1.4,4.13c0.64,1.26,1.46,2.35,2.48,3.29c1.01,0.93,2.22,1.66,3.61,2.18c1.4,0.52,3.01,0.78,4.83,0.78
			c1.93,0,3.61-0.33,5.02-0.99c1.41-0.66,2.5-1.61,3.27-2.86s1.15-2.78,1.15-4.59c0-1.61-0.39-2.96-1.18-4.06
			c-0.79-1.1-1.83-2.06-3.13-2.88c-1.3-0.81-2.73-1.56-4.28-2.24c-1.55-0.68-3.1-1.4-4.65-2.15c-1.55-0.75-2.98-1.62-4.28-2.61
			c-1.3-0.99-2.35-2.2-3.13-3.61c-0.78-1.41-1.18-3.13-1.18-5.16s0.51-3.8,1.53-5.31c1.02-1.51,2.4-2.7,4.12-3.54
			s3.63-1.27,5.71-1.27c1.81,0,3.47,0.29,4.98,0.86c1.51,0.57,2.83,1.45,3.94,2.61l2.55-3.48h0.9v11.25h-1.04
			c-0.37-2.28-1.05-4.17-2.05-5.65c-1-1.49-2.25-2.59-3.75-3.31c-1.5-0.72-3.17-1.08-5.01-1.08c-2.61,0-4.58,0.62-5.93,1.85
			s-2.01,2.86-2.01,4.89c0,1.44,0.39,2.66,1.16,3.67s1.8,1.88,3.08,2.64c1.28,0.76,2.68,1.47,4.22,2.15c1.53,0.68,3.07,1.4,4.6,2.18
			c1.53,0.78,2.94,1.69,4.22,2.75c1.28,1.06,2.3,2.34,3.08,3.85c0.78,1.51,1.16,3.34,1.16,5.49c0,2.37-0.51,4.44-1.53,6.2
			c-1.02,1.76-2.47,3.13-4.35,4.09C456.3,108.32,454.07,108.8,451.5,108.8z"/>
		<path d="M499.19,66.15l14.13,40.79h4.27v1.07H501.7v-1.07h5.61l-10.76-33.32l-11.61,33.32h5.8v1.07h-12.05v-1.07h5.01l14.34-40.79
			H499.19z M488.84,95.17V94.1h17.74v1.07H488.84z"/>
		<path d="M541.78,87.09v-0.71h6.02c1.39,0,2.71-0.27,3.97-0.82c1.26-0.55,2.29-1.46,3.08-2.74c0.79-1.28,1.19-3,1.19-5.17
			s-0.4-3.97-1.19-5.39c-0.79-1.42-1.82-2.49-3.08-3.19c-1.26-0.7-2.58-1.05-3.97-1.05h-15.88v-1.07h15.88c4.14,0,7.46,0.8,9.95,2.4
			s3.74,4.17,3.74,7.73c0,3.54-1.18,6.1-3.53,7.67c-2.35,1.57-5.74,2.35-10.16,2.35H541.78z M531.93,108.01v-1.07h16.43
			c1.57,0,3.02-0.42,4.35-1.25c1.33-0.83,2.4-2.03,3.2-3.59c0.8-1.56,1.2-3.43,1.2-5.6s-0.4-3.92-1.2-5.26
			c-0.8-1.33-1.87-2.3-3.2-2.9c-1.33-0.6-2.78-0.9-4.35-0.9h-6.57v-0.68h7.15c2.57,0,4.94,0.32,7.09,0.96
			c2.15,0.64,3.88,1.67,5.17,3.09c1.3,1.42,1.94,3.32,1.94,5.69c0,4.11-1.26,7.05-3.79,8.83c-2.53,1.78-6,2.67-10.42,2.67H531.93z
			 M536.85,107.6V67.36h5.23v40.24H536.85z"/>
		<path d="M578.79,108.01v-1.07h4.93V68.01h-4.93v-1.07H608v11.22h-1.07c0-1.95-0.28-3.7-0.83-5.23c-0.56-1.53-1.47-2.74-2.74-3.61
			c-1.27-0.88-2.97-1.31-5.11-1.31h-9.31v38.93h8.73c2.5,0,4.46-0.46,5.89-1.37c1.42-0.91,2.43-2.21,3.03-3.89
			c0.59-1.68,0.89-3.68,0.89-6h1.07v12.32H578.79z M597.63,92.76c0-1.22-0.23-2.24-0.7-3.04c-0.47-0.8-1.11-1.41-1.93-1.81
			c-0.82-0.4-1.75-0.6-2.79-0.6h-4.57v-1.07h4.57c1.04,0,1.97-0.18,2.79-0.55c0.82-0.36,1.46-0.93,1.93-1.7s0.7-1.76,0.7-2.98h1.07
			v11.74H597.63z"/>
		<path d="M623.61,108.01v-1.07h4.93V68.01h-4.93v-1.07h15.06v1.07h-4.9v38.93h8.46c2.15,0,3.88-0.26,5.17-0.78
			c1.3-0.52,2.28-1.27,2.94-2.25c0.67-0.98,1.11-2.16,1.33-3.54s0.33-2.95,0.33-4.68h1.1v12.32H623.61z"/>
		<path d="M667.6,108.01v-1.07h4.93V68.01h-4.93v-1.07h15.06v1.07h-4.9v38.93h8.46c2.15,0,3.88-0.26,5.17-0.78
			c1.3-0.52,2.28-1.27,2.94-2.25c0.67-0.98,1.11-2.16,1.33-3.54s0.33-2.95,0.33-4.68h1.1v12.32H667.6z"/>
		<path d="M732.07,66.15l14.13,40.79h4.27v1.07h-15.88v-1.07h5.61l-10.76-33.32l-11.61,33.32h5.8v1.07h-12.05v-1.07h5.01
			l14.34-40.79H732.07z M721.72,95.17V94.1h17.74v1.07H721.72z"/>
	</g>
</g>
</svg>
